<svg width="45" height="45" viewBox="0 0 45 45" fill="none" xmlns="http://www.w3.org/2000/svg">
<rect width="45" height="45" rx="22.5" fill="white"/>
<path d="M27.8088 19.98L21.8463 15.605C21.3806 15.264 20.8295 15.0586 20.2542 15.0117C19.6789 14.9647 19.1019 15.078 18.5871 15.339C18.0722 15.6 17.6397 15.9984 17.3375 16.4902C17.0353 16.982 16.8752 17.5478 16.875 18.125V26.875C16.8751 27.4525 17.0352 28.0186 17.3375 28.5106C17.6399 29.0026 18.0726 29.4012 18.5878 29.6621C19.1029 29.9231 19.6803 30.0362 20.2558 29.989C20.8313 29.9417 21.3825 29.7359 21.8481 29.3944L27.8106 25.0194C28.2064 24.7291 28.5283 24.3497 28.7501 23.9119C28.972 23.4741 29.0876 22.9902 29.0876 22.4994C29.0876 22.0086 28.972 21.5247 28.7501 21.0868C28.5283 20.649 28.2064 20.2696 27.8106 19.9794L27.8088 19.98ZM27.0687 24.0113L21.1063 28.3863C20.8269 28.5904 20.4965 28.7133 20.1516 28.7412C19.8067 28.7692 19.4608 28.7012 19.1522 28.5448C18.8436 28.3883 18.5843 28.1495 18.403 27.8548C18.2217 27.5601 18.1255 27.221 18.125 26.875V18.125C18.1215 17.7783 18.2159 17.4377 18.3974 17.1423C18.5788 16.8469 18.8399 16.6087 19.1506 16.455C19.4149 16.3206 19.7072 16.2503 20.0037 16.25C20.4012 16.2515 20.7876 16.3806 21.1063 16.6181L27.0687 20.9931C27.3059 21.1673 27.4988 21.3949 27.6317 21.6574C27.7646 21.92 27.8339 22.2101 27.8339 22.5044C27.8339 22.7987 27.7646 23.0888 27.6317 23.3513C27.4988 23.6139 27.3059 23.8414 27.0687 24.0156V24.0113Z" fill="#8D0019"/>
</svg>
